<?xml version="1.0" standalone="no"?>
<!DOCTYPE svg PUBLIC "-//W3C//DTD SVG 20010904//EN"
 "http://www.w3.org/TR/2001/REC-SVG-20010904/DTD/svg10.dtd">
<svg version="1.0" xmlns="http://www.w3.org/2000/svg"
 width="407.000000pt" height="407.000000pt" viewBox="0 0 407.000000 407.000000"
 preserveAspectRatio="xMidYMid meet">
<metadata>
Created by potrace 1.14, written by Peter Selinger 2001-2017
</metadata>
<g transform="translate(0.000000,407.000000) scale(0.100000,-0.100000)"
fill="#000000" stroke="none">
<path d="M1003 3696 c10 -100 81 -208 177 -272 76 -50 134 -57 535 -57 455 0
471 3 593 103 61 49 112 145 119 220 l6 60 -718 0 -718 0 6 -54z"/>
<path d="M2653 3582 l-151 -169 -5 -409 c-4 -370 -6 -416 -24 -479 -48 -169
-113 -283 -233 -409 -133 -139 -275 -218 -475 -263 -59 -13 -173 -17 -710 -20
-725 -4 -710 -2 -835 -85 -113 -75 -186 -193 -212 -348 -10 -60 -9 -80 6 -147
23 -96 34 -118 104 -213 247 -332 624 -580 1032 -679 495 -120 1022 -29 1443
248 125 83 196 142 309 257 301 309 469 672 518 1116 14 131 13 210 -5 360
-19 167 -39 260 -82 388 -64 191 -160 371 -290 543 l-74 97 386 0 c363 0 389
1 447 21 144 48 239 164 264 319 l7 40 -634 0 -634 0 -152 -168z"/>
<path d="M777 2672 c-20 -21 -27 -38 -27 -68 0 -34 7 -46 48 -87 l49 -48 46
50 c38 41 47 57 47 86 0 84 -105 127 -163 67z"/>
<path d="M2864 548 c-71 -78 -148 -162 -171 -187 l-42 -46 216 -3 c175 -2 227
1 272 14 147 42 251 164 275 322 l6 42 -214 0 -213 0 -129 -142z"/>
</g>
</svg>
